<?xml version="1.0" encoding="utf-8"?>
<!-- Generator: Adobe Illustrator 25.0.1, SVG Export Plug-In . SVG Version: 6.00 Build 0)  -->
<svg version="1.1" xmlns="http://www.w3.org/2000/svg" xmlns:xlink="http://www.w3.org/1999/xlink" x="0px" y="0px"
	 viewBox="0 0 1024 720" style="enable-background:new 0 0 1024 720;" xml:space="preserve">
<style type="text/css">
	.st0{fill:#FFFFFF;}
</style>
<g id="Layer_1">
	<g>
		<path d="M368.12,465.37l-21.71-1.73c-1.1-0.08-1.85-0.36-2.26-0.83c-0.41-0.47-0.62-1.35-0.62-2.62v-0.8
			c0-1.28,0.21-2.17,0.64-2.69c0.43-0.52,1.17-0.77,2.24-0.77h17.03c1.92,0,2.88,0.82,2.88,2.47v0.12c0,1.19,0.5,1.79,1.49,1.79
			h5.45c1.23,0,1.85-0.74,1.85-2.22v-1.11c0-3.21-0.63-5.56-1.88-7.04c-1.25-1.48-3.2-2.22-5.84-2.22h-25.25
			c-2.64,0-4.59,0.74-5.84,2.22c-1.25,1.48-1.88,3.83-1.88,7.04v5.93c0,3.13,0.62,5.4,1.85,6.82c1.23,1.42,3.19,2.23,5.86,2.44
			l21.71,1.73c1.1,0.08,1.85,0.36,2.26,0.83c0.41,0.47,0.62,1.35,0.62,2.62v1.91c0,1.28-0.21,2.17-0.64,2.69
			c-0.43,0.52-1.18,0.77-2.24,0.77h-18.26c-1.06,0-1.81-0.23-2.24-0.68c-0.43-0.45-0.64-1.21-0.64-2.28v-0.12
			c0-1.36-0.57-2.04-1.7-2.04h-5.2c-1.27,0-1.9,0.74-1.9,2.22v1.85c0,3.21,0.63,5.56,1.88,7.04c1.25,1.48,3.2,2.22,5.84,2.22h26.49
			c2.64,0,4.59-0.74,5.84-2.22c1.25-1.48,1.88-3.83,1.88-7.04v-7.04c0-3.17-0.61-5.44-1.83-6.82
			C372.79,466.43,370.82,465.62,368.12,465.37z"/>
		<path d="M420.89,482.17h-26.03v-9.45h23.76c1.17,0,1.75-0.7,1.75-2.1v-3.83c0-1.4-0.58-2.1-1.75-2.1h-23.76v-8.21h25.51
			c1.37,0,2.06-0.82,2.06-2.47v-3.83c0-1.65-0.69-2.47-2.06-2.47h-32.56c-1.37,0-2.06,0.82-2.06,2.47v38.28
			c0,1.65,0.69,2.47,2.06,2.47h33.07c1.37,0,2.06-0.82,2.06-2.47v-3.83C422.95,482.99,422.26,482.17,420.89,482.17z"/>
		<path d="M463.07,447.72h-21.66c-3.39,0-5.91,0.97-7.54,2.9c-1.63,1.94-2.44,4.96-2.44,9.08v19.26c0,4.12,0.81,7.14,2.44,9.08
			c1.63,1.93,4.14,2.9,7.54,2.9h21.66c3.39,0,5.91-0.97,7.54-2.9c1.63-1.93,2.44-4.96,2.44-9.08v-3.03c0-1.65-0.69-2.47-2.06-2.47
			h-4.68c-1.37,0-2.06,0.82-2.06,2.47v1.05c0,1.89-0.31,3.21-0.93,3.95c-0.62,0.74-1.71,1.11-3.29,1.11h-15.28
			c-1.54,0-2.63-0.37-3.27-1.11c-0.64-0.74-0.95-2.06-0.95-3.95v-15.31c0-1.89,0.32-3.21,0.95-3.95c0.63-0.74,1.72-1.11,3.27-1.11
			h15.28c1.58,0,2.67,0.37,3.29,1.11c0.62,0.74,0.93,2.02,0.93,3.83v0.74c0,1.65,0.69,2.47,2.06,2.47h4.68
			c1.37,0,2.06-0.82,2.06-2.47v-2.59c0-4.12-0.82-7.14-2.44-9.08C468.97,448.68,466.46,447.72,463.07,447.72z"/>
		<path d="M521.86,447.72h-4.94c-1.37,0-2.06,0.82-2.06,2.47v26.55c0,1.85-0.32,3.16-0.95,3.92c-0.64,0.76-1.72,1.14-3.27,1.14
			h-14.81c-1.58,0-2.67-0.38-3.29-1.14c-0.62-0.76-0.93-2.07-0.93-3.92v-26.55c0-1.65-0.69-2.47-2.06-2.47h-4.94
			c-1.37,0-2.06,0.82-2.06,2.47v28.77c0,4.12,0.81,7.14,2.44,9.08c1.63,1.93,4.14,2.9,7.54,2.9h21.4c3.4,0,5.91-0.97,7.54-2.9
			c1.63-1.93,2.44-4.96,2.44-9.08v-28.77C523.91,448.54,523.23,447.72,521.86,447.72z"/>
		<path d="M565.73,475.13c2.98-0.08,5.15-0.97,6.51-2.65c1.35-1.69,2.03-4.38,2.03-8.09v-5.93c0-3.83-0.7-6.58-2.11-8.24
			c-1.4-1.67-3.68-2.5-6.84-2.5H536c-1.37,0-2.06,0.82-2.06,2.47v38.28c0,1.65,0.68,2.47,2.06,2.47h4.94c1.37,0,2.06-0.82,2.06-2.47
			v-12.6h13.07l8.48,13.46c0.58,1.07,1.44,1.61,2.57,1.61h5.66c0.86,0,1.4-0.29,1.64-0.86c0.24-0.58,0.12-1.28-0.36-2.1
			L565.73,475.13z M565.22,463.89c0,1.65-0.25,2.78-0.75,3.4c-0.5,0.62-1.43,0.93-2.8,0.93H543v-12.6h18.67
			c1.37,0,2.31,0.31,2.8,0.93c0.5,0.62,0.75,1.75,0.75,3.4V463.89z"/>
		<path d="M591.71,447.72h-5.04c-1.37,0-2.06,0.82-2.06,2.47v38.28c0,1.65,0.68,2.47,2.06,2.47h5.04c1.37,0,2.06-0.82,2.06-2.47
			v-38.28C593.76,448.54,593.08,447.72,591.71,447.72z"/>
		<path d="M640.31,447.72h-36c-1.37,0-2.06,0.82-2.06,2.47v4.44c0,1.65,0.69,2.47,2.06,2.47h13.48v31.37c0,1.65,0.68,2.47,2.06,2.47
			h4.94c1.37,0,2.06-0.82,2.06-2.47V457.1h13.48c1.37,0,2.06-0.82,2.06-2.47v-4.44C642.37,448.54,641.69,447.72,640.31,447.72z"/>
		<path d="M690.46,448.58c-0.24-0.58-0.79-0.86-1.65-0.86h-5.76c-1.1,0-1.92,0.54-2.47,1.61l-11.11,17.41l-11.16-17.41
			c-0.58-1.07-1.41-1.61-2.47-1.61h-6.28c-0.86,0-1.4,0.29-1.65,0.86c-0.24,0.58-0.12,1.28,0.36,2.1l16.41,24.51v13.28
			c0,1.65,0.69,2.47,2.06,2.47h4.94c1.37,0,2.06-0.82,2.06-2.47v-13.4l16.36-24.39C690.58,449.86,690.7,449.16,690.46,448.58z"/>
		<path d="M640.89,368.04c-1.04-19.04-9.78-33.03-25.68-41.71c-1.47-0.79-3.5-0.86-4.24-3.18c0.69-0.53,1.32-1.03,2-1.49
			c24.07-16.21,25.96-49.91,9.86-70.92c-11.26-14.69-26.45-20.68-43.56-21.05c-21.44-0.46-42.89-0.13-64.33-0.15h-17.49
			c-14.89,23.71-29.61,47.17-44.76,71.32c-15.58-24.39-30.53-47.81-45.41-71.12h-44.13c1.77,2.85,2.95,4.87,4.22,6.8
			c21.16,32.57,42.3,65.18,63.56,97.66c2.53,3.88,3.75,7.7,3.73,12.48c-0.16,20.64-0.12,58.23-0.08,78.84h36.29
			c0-21.03,0.02-59.04-0.06-80.07c0-3.62,0.71-6.67,2.67-9.67c7.15-10.94,14.07-22.04,21.08-33.07
			c7.72-12.15,15.44-24.3,23.07-36.34c19.45,0,38.47-0.04,57.47,0.07c2.22,0.02,4.5,0.61,6.66,1.23c8.76,2.5,13.64,8.86,14.05,18.11
			c0.43,9.63-3.48,16.1-12.08,19.67c-5.95,2.48-12.2,3.11-18.51,3.11c-11.2,0-27.55-0.02-41.56-0.02v-0.02h-9.37l-3.77,5.94
			c-0.45,0.7-0.9,1.43-1.34,2.13c-1.45,2.3-2.91,4.61-4.36,6.91c-4.72,7.48-9.61,15.18-14.54,22.79v79.24h33.38v-0.02
			c18.57,0.02,37.61,0,54.54-0.22c14.83-0.2,29.22-3.25,41.83-12.46C634.66,402.1,641.91,387.05,640.89,368.04z M590.51,386.5
			c-5.32,2.3-10.94,2.81-16.62,2.83c-16.74,0.11-33.5,0.15-50.26,0.2V344.9c16.5,0.02,35.94,0.02,49.73,0.07
			c5.01,0.02,10,0.07,14.89,1.51c9.18,2.72,14.54,9.04,15.07,17.96C603.93,375.1,599.67,382.53,590.51,386.5z"/>
	</g>
	<rect class="st0" width="1024" height="720"/>
</g>
<g id="Layer_1_copy">
	<g>
		<path d="M368.12,465.37l-21.71-1.73c-1.1-0.08-1.85-0.36-2.26-0.83c-0.41-0.47-0.62-1.35-0.62-2.62v-0.8
			c0-1.28,0.21-2.17,0.64-2.69c0.43-0.52,1.17-0.77,2.24-0.77h17.03c1.92,0,2.88,0.82,2.88,2.47v0.12c0,1.19,0.5,1.79,1.49,1.79
			h5.45c1.23,0,1.85-0.74,1.85-2.22v-1.11c0-3.21-0.63-5.56-1.88-7.04c-1.25-1.48-3.2-2.22-5.84-2.22h-25.25
			c-2.64,0-4.59,0.74-5.84,2.22c-1.25,1.48-1.88,3.83-1.88,7.04v5.93c0,3.13,0.62,5.4,1.85,6.82c1.23,1.42,3.19,2.23,5.86,2.44
			l21.71,1.73c1.1,0.08,1.85,0.36,2.26,0.83c0.41,0.47,0.62,1.35,0.62,2.62v1.91c0,1.28-0.21,2.17-0.64,2.69
			c-0.43,0.52-1.18,0.77-2.24,0.77h-18.26c-1.06,0-1.81-0.23-2.24-0.68c-0.43-0.45-0.64-1.21-0.64-2.28v-0.12
			c0-1.36-0.57-2.04-1.7-2.04h-5.2c-1.27,0-1.9,0.74-1.9,2.22v1.85c0,3.21,0.63,5.56,1.88,7.04c1.25,1.48,3.2,2.22,5.84,2.22h26.49
			c2.64,0,4.59-0.74,5.84-2.22c1.25-1.48,1.88-3.83,1.88-7.04v-7.04c0-3.17-0.61-5.44-1.83-6.82
			C372.79,466.43,370.82,465.62,368.12,465.37z"/>
		<path d="M420.89,482.17h-26.03v-9.45h23.76c1.17,0,1.75-0.7,1.75-2.1v-3.83c0-1.4-0.58-2.1-1.75-2.1h-23.76v-8.21h25.51
			c1.37,0,2.06-0.82,2.06-2.47v-3.83c0-1.65-0.69-2.47-2.06-2.47h-32.56c-1.37,0-2.06,0.82-2.06,2.47v38.28
			c0,1.65,0.69,2.47,2.06,2.47h33.07c1.37,0,2.06-0.82,2.06-2.47v-3.83C422.95,482.99,422.26,482.17,420.89,482.17z"/>
		<path d="M463.07,447.72h-21.66c-3.39,0-5.91,0.97-7.54,2.9c-1.63,1.94-2.44,4.96-2.44,9.08v19.26c0,4.12,0.81,7.14,2.44,9.08
			c1.63,1.93,4.14,2.9,7.54,2.9h21.66c3.39,0,5.91-0.97,7.54-2.9c1.63-1.93,2.44-4.96,2.44-9.08v-3.03c0-1.65-0.69-2.47-2.06-2.47
			h-4.68c-1.37,0-2.06,0.82-2.06,2.47v1.05c0,1.89-0.31,3.21-0.93,3.95c-0.62,0.74-1.71,1.11-3.29,1.11h-15.28
			c-1.54,0-2.63-0.37-3.27-1.11c-0.64-0.74-0.95-2.06-0.95-3.95v-15.31c0-1.89,0.32-3.21,0.95-3.95c0.63-0.74,1.72-1.11,3.27-1.11
			h15.28c1.58,0,2.67,0.37,3.29,1.11c0.62,0.74,0.93,2.02,0.93,3.83v0.74c0,1.65,0.69,2.47,2.06,2.47h4.68
			c1.37,0,2.06-0.82,2.06-2.47v-2.59c0-4.12-0.82-7.14-2.44-9.08C468.97,448.68,466.46,447.72,463.07,447.72z"/>
		<path d="M521.86,447.72h-4.94c-1.37,0-2.06,0.82-2.06,2.47v26.55c0,1.85-0.32,3.16-0.95,3.92c-0.64,0.76-1.72,1.14-3.27,1.14
			h-14.81c-1.58,0-2.67-0.38-3.29-1.14c-0.62-0.76-0.93-2.07-0.93-3.92v-26.55c0-1.65-0.69-2.47-2.06-2.47h-4.94
			c-1.37,0-2.06,0.82-2.06,2.47v28.77c0,4.12,0.81,7.14,2.44,9.08c1.63,1.93,4.14,2.9,7.54,2.9h21.4c3.4,0,5.91-0.97,7.54-2.9
			c1.63-1.93,2.44-4.96,2.44-9.08v-28.77C523.91,448.54,523.23,447.72,521.86,447.72z"/>
		<path d="M565.73,475.13c2.98-0.08,5.15-0.97,6.51-2.65c1.35-1.69,2.03-4.38,2.03-8.09v-5.93c0-3.83-0.7-6.58-2.11-8.24
			c-1.4-1.67-3.68-2.5-6.84-2.5H536c-1.37,0-2.06,0.82-2.06,2.47v38.28c0,1.65,0.68,2.47,2.06,2.47h4.94c1.37,0,2.06-0.82,2.06-2.47
			v-12.6h13.07l8.48,13.46c0.58,1.07,1.44,1.61,2.57,1.61h5.66c0.86,0,1.4-0.29,1.64-0.86c0.24-0.58,0.12-1.28-0.36-2.1
			L565.73,475.13z M565.22,463.89c0,1.65-0.25,2.78-0.75,3.4c-0.5,0.62-1.43,0.93-2.8,0.93H543v-12.6h18.67
			c1.37,0,2.31,0.31,2.8,0.93c0.5,0.62,0.75,1.75,0.75,3.4V463.89z"/>
		<path d="M591.71,447.72h-5.04c-1.37,0-2.06,0.82-2.06,2.47v38.28c0,1.65,0.68,2.47,2.06,2.47h5.04c1.37,0,2.06-0.82,2.06-2.47
			v-38.28C593.76,448.54,593.08,447.72,591.71,447.72z"/>
		<path d="M640.31,447.72h-36c-1.37,0-2.06,0.82-2.06,2.47v4.44c0,1.65,0.69,2.47,2.06,2.47h13.48v31.37c0,1.65,0.68,2.47,2.06,2.47
			h4.94c1.37,0,2.06-0.82,2.06-2.47V457.1h13.48c1.37,0,2.06-0.82,2.06-2.47v-4.44C642.37,448.54,641.69,447.72,640.31,447.72z"/>
		<path d="M690.46,448.58c-0.24-0.58-0.79-0.86-1.65-0.86h-5.76c-1.1,0-1.92,0.54-2.47,1.61l-11.11,17.41l-11.16-17.41
			c-0.58-1.07-1.41-1.61-2.47-1.61h-6.28c-0.86,0-1.4,0.29-1.65,0.86c-0.24,0.58-0.12,1.28,0.36,2.1l16.41,24.51v13.28
			c0,1.65,0.69,2.47,2.06,2.47h4.94c1.37,0,2.06-0.82,2.06-2.47v-13.4l16.36-24.39C690.58,449.86,690.7,449.16,690.46,448.58z"/>
		<path d="M640.89,368.04c-1.04-19.04-9.78-33.03-25.68-41.71c-1.47-0.79-3.5-0.86-4.24-3.18c0.69-0.53,1.32-1.03,2-1.49
			c24.07-16.21,25.96-49.91,9.86-70.92c-11.26-14.69-26.45-20.68-43.56-21.05c-21.44-0.46-42.89-0.13-64.33-0.15h-17.49
			c-14.89,23.71-29.61,47.17-44.76,71.32c-15.58-24.39-30.53-47.81-45.41-71.12h-44.13c1.77,2.85,2.95,4.87,4.22,6.8
			c21.16,32.57,42.3,65.18,63.56,97.66c2.53,3.88,3.75,7.7,3.73,12.48c-0.16,20.64-0.12,58.23-0.08,78.84h36.29
			c0-21.03,0.02-59.04-0.06-80.07c0-3.62,0.71-6.67,2.67-9.67c7.15-10.94,14.07-22.04,21.08-33.07
			c7.72-12.15,15.44-24.3,23.07-36.34c19.45,0,38.47-0.04,57.47,0.07c2.22,0.02,4.5,0.61,6.66,1.23c8.76,2.5,13.64,8.86,14.05,18.11
			c0.43,9.63-3.48,16.1-12.08,19.67c-5.95,2.48-12.2,3.11-18.51,3.11c-11.2,0-27.55-0.02-41.56-0.02v-0.02h-9.37l-3.77,5.94
			c-0.45,0.7-0.9,1.43-1.34,2.13c-1.45,2.3-2.91,4.61-4.36,6.91c-4.72,7.48-9.61,15.18-14.54,22.79v79.24h33.38v-0.02
			c18.57,0.02,37.61,0,54.54-0.22c14.83-0.2,29.22-3.25,41.83-12.46C634.66,402.1,641.91,387.05,640.89,368.04z M590.51,386.5
			c-5.32,2.3-10.94,2.81-16.62,2.83c-16.74,0.11-33.5,0.15-50.26,0.2V344.9c16.5,0.02,35.94,0.02,49.73,0.07
			c5.01,0.02,10,0.07,14.89,1.51c9.18,2.72,14.54,9.04,15.07,17.96C603.93,375.1,599.67,382.53,590.51,386.5z"/>
	</g>
</g>
</svg>
